<svg xmlns="http://www.w3.org/2000/svg" width="14" height="14"><path fill="#1B105F" d="M.602 14c.06 0 .12 0 .16-.02l4.178-1.218c.22-.06.44-.18.6-.36l7.635-7.626a2.781 2.781 0 0 0 0-3.952 2.79 2.79 0 0 0-3.957 0L1.602 8.45c-.16.16-.28.38-.36.599L.022 13.22a.617.617 0 0 0 .58.779zM8.778 2.98l2.259 2.256-5.937 5.93-2.259-2.257 5.937-5.93zm2.439-1.777c.4 0 .82.16 1.139.459.3.3.46.699.46 1.138 0 .44-.16.839-.46 1.138l-.46.44L9.637 2.12l.44-.439c.32-.32.72-.48 1.14-.48zM2.222 9.967l1.799 1.797-2.539.739.74-2.536z"/></svg>