<svg width="16" height="16" viewBox="0 0 16 16" fill="none" xmlns="http://www.w3.org/2000/svg">
<path fill-rule="evenodd" clip-rule="evenodd" d="M8.24234 2C5.55956 2.06744 3.40069 4.22631 3.33325 6.90909C3.37877 7.70229 3.59754 8.47588 3.97416 9.17545L4.01234 9.24363C6.97962 14 7.86598 14 8.24234 14C8.83144 14 9.46689 13.5855 10.9696 11.4718C11.7578 10.3809 12.4342 9.29 12.4614 9.24091L12.4996 9.17545C12.88 8.47678 13.1026 7.70313 13.1514 6.90909C13.084 4.22631 10.9251 2.06744 8.24234 2ZM11.7878 8.81818C11.7878 8.81818 9.06053 13.1818 8.24234 13.1818C7.42416 13.1818 4.69689 8.81818 4.69689 8.81818C4.37983 8.22849 4.19377 7.5773 4.15143 6.90909C4.15143 4.64976 5.98299 2.81818 8.24234 2.81818C10.5017 2.81818 12.3333 4.64976 12.3333 6.90909C12.2884 7.5779 12.0995 8.22914 11.7796 8.81818H11.7878Z" fill="black"/>
<path fill-rule="evenodd" clip-rule="evenodd" d="M8.24237 4.45422C7.03737 4.45422 6.06055 5.43105 6.06055 6.63604C6.06055 7.84103 7.03737 8.81786 8.24237 8.81786C9.44736 8.81786 10.4242 7.84103 10.4242 6.63604C10.4242 5.43105 9.44736 4.45422 8.24237 4.45422ZM8.24237 7.99967C7.48926 7.99967 6.87873 7.38915 6.87873 6.63604C6.87873 5.88293 7.48926 5.2724 8.24237 5.2724C8.99548 5.2724 9.606 5.88293 9.606 6.63604C9.606 7.38915 8.99548 7.99967 8.24237 7.99967Z" fill="black"/>
</svg>
