<svg width="24" height="24" viewBox="0 0 24 24" fill="none" xmlns="http://www.w3.org/2000/svg">
<path d="M11.9999 8.5188C10.3572 8.5188 9.02081 9.85522 9.02081 11.4979C9.02081 13.1406 10.3572 14.4771 11.9999 14.4771C13.6426 14.4771 14.9791 13.1406 14.9791 11.4979C14.9791 9.85522 13.6426 8.5188 11.9999 8.5188ZM11.9999 13.5396C10.8742 13.5396 9.95831 12.6237 9.95831 11.4979C9.95831 10.3722 10.8742 9.4563 11.9999 9.4563C13.1257 9.4563 14.0416 10.3721 14.0416 11.4979C14.0416 12.6237 13.1257 13.5396 11.9999 13.5396Z" fill="black"/>
<path d="M19.4215 4.57849C19.0486 4.20544 18.5526 4 18.025 4H5.97498C5.44739 4 4.95142 4.20544 4.57849 4.57849C4.20544 4.95142 4 5.44739 4 5.97498V7.9834C4 8.51086 4.20544 9.00684 4.57849 9.37988C4.95154 9.75293 5.44751 9.95837 5.97498 9.95837H7.01245V18.5271C7.01245 18.9205 7.16565 19.2904 7.44385 19.5686C7.72205 19.8468 8.09192 20 8.48535 20H15.5146C15.9081 20 16.278 19.8468 16.5562 19.5686C16.8342 19.2904 16.9875 18.9205 16.9875 18.5271V9.95825H18.025C18.5526 9.95825 19.0486 9.75293 19.4215 9.37988C19.7946 9.00684 20 8.51086 20 7.9834V5.97498C20 5.44739 19.7946 4.95142 19.4215 4.57849ZM16.05 18.5271C16.05 18.6702 15.9943 18.8046 15.8932 18.9056C15.7921 19.0068 15.6576 19.0625 15.5146 19.0625H8.48535C8.34241 19.0625 8.20789 19.0068 8.10681 18.9056C8.00574 18.8046 7.94995 18.67 7.94995 18.5271V7.44788H16.05V18.5271ZM19.0625 7.9834C19.0625 8.2605 18.9546 8.521 18.7585 8.71692C18.5626 8.91296 18.3021 9.02087 18.025 9.02087H16.9874V7.448H17.5229C17.7817 7.448 17.9917 7.23804 17.9917 6.97925C17.9917 6.72034 17.7817 6.5105 17.5229 6.5105H6.47705C6.21826 6.5105 6.0083 6.72034 6.0083 6.97925C6.0083 7.23804 6.21826 7.448 6.47705 7.448H7.01245V9.02087H5.97498C5.69788 9.02087 5.43738 8.91296 5.24133 8.71692C5.04541 8.521 4.9375 8.2605 4.9375 7.9834V5.97498C4.9375 5.69788 5.04541 5.43738 5.24146 5.24133C5.43738 5.04541 5.69788 4.9375 5.97498 4.9375H18.025C18.3021 4.9375 18.5626 5.04541 18.7587 5.24146C18.9546 5.43738 19.0625 5.69788 19.0625 5.97498V7.9834Z" fill="black"/>
<path d="M14.5103 16.552H9.48956C9.23065 16.552 9.02081 16.7618 9.02081 17.0208C9.02081 17.2795 9.23065 17.4895 9.48956 17.4895H14.5103C14.7692 17.4895 14.9791 17.2795 14.9791 17.0208C14.9791 16.7618 14.7692 16.552 14.5103 16.552Z" fill="black"/>
</svg>
