<svg width="18" height="18" viewBox="0 0 18 18" fill="none" xmlns="http://www.w3.org/2000/svg">
<path fill-rule="evenodd" clip-rule="evenodd" d="M16.926 16.8711L12.8713 12.8384C15.7124 9.97977 15.799 5.391 13.0678 2.42727C10.3366 -0.536459 5.75603 -0.824293 2.67531 1.77422C-0.40541 4.37272 -0.893955 8.93621 1.56689 12.128C4.02772 15.3198 8.56539 16.0081 11.8621 13.6897L15.9957 17.8233C16.2551 18.065 16.6592 18.0579 16.9099 17.8072C17.1606 17.5565 17.1677 17.1524 16.926 16.893V16.8711ZM1.43135 7.57254C1.43135 4.1796 4.18186 1.42908 7.5748 1.42908C10.9677 1.42908 13.7183 4.1796 13.7183 7.57254C13.7183 10.9655 10.9677 13.716 7.5748 13.716C4.18186 13.716 1.43135 10.9655 1.43135 7.57254Z" fill="black"/>
</svg>
