<svg width="24" height="24" viewBox="0 0 24 24" fill="none" xmlns="http://www.w3.org/2000/svg">
<path d="M18.4233 6.99241C18.3371 5.87942 17.4046 5 16.2699 5H6.16068C4.96928 5 4 5.96928 4 7.16069V17.1577C4 18.3491 4.96928 19.3184 6.16068 19.3184H17.8393C19.0307 19.3184 20 18.3491 20 17.1577V9.07222C20 8.08322 19.3318 7.2479 18.4233 6.99241ZM6.16068 6.00937H16.2699C16.8192 6.00937 17.2795 6.39612 17.3937 6.91156H6.16068C5.73766 6.91156 5.34297 7.03423 5.00937 7.24519V7.16069C5.00937 6.52586 5.52585 6.00937 6.16068 6.00937ZM17.8393 18.309H6.16068C5.52585 18.309 5.00937 17.7925 5.00937 17.1577V9.07222C5.00937 8.43739 5.52585 7.9209 6.16068 7.9209H17.8393C18.4741 7.9209 18.9906 8.43739 18.9906 9.07222V10.8335H15.7724C14.4972 10.8335 13.4597 11.871 13.4597 13.1463C13.4597 14.4216 14.4972 15.4591 15.7724 15.4591H18.9906V17.1577C18.9906 17.7925 18.4741 18.309 17.8393 18.309ZM18.9906 14.4498H15.7724C15.0537 14.4498 14.469 13.8651 14.469 13.1463C14.469 12.4276 15.0537 11.8429 15.7724 11.8429H18.9906V14.4498Z" fill="black"/>
</svg>
