<svg width="24" height="24" viewBox="0 0 24 24" fill="none" xmlns="http://www.w3.org/2000/svg">
<path d="M7.3794 7.61048L6.51793 6.87158C6.25308 7.18038 6.01143 7.50836 5.79492 7.85281L6.75969 8.45607C6.94473 8.15905 7.1519 7.87639 7.3794 7.61048Z" fill="#1B105F"/>
<path d="M8.9628 6.23839L8.35216 5.28101C8.00847 5.49918 7.68144 5.74253 7.37378 6.00912L8.11721 6.86606C8.38323 6.63629 8.66585 6.42649 8.9628 6.23839Z" fill="#1B105F"/>
<path d="M20.1251 8.54008C18.7288 5.75571 15.88 3.99842 12.7651 4.00002C11.6149 3.99768 10.4771 4.23784 9.42592 4.70486L9.88616 5.74227C13.4686 4.15629 17.6585 5.77476 19.2444 9.35722C20.8304 12.9397 19.2119 17.1295 15.6295 18.7155C14.7273 19.1149 13.7517 19.3217 12.7651 19.3227C10.0795 19.3345 7.62138 17.8167 6.42891 15.4103L5.41364 15.9177C7.45092 19.9802 12.3957 21.6219 16.4582 19.5846C20.5207 17.5474 22.1624 12.6025 20.1251 8.54008Z" fill="#1B105F"/>
<path d="M6.40505 10.6926L5.72801 11.3685C5.79278 10.8074 5.92621 10.2564 6.12527 9.72784C6.16896 9.6115 6.21607 9.4963 6.26544 9.38223L5.22463 8.92822C5.16788 9.05932 5.11113 9.19211 5.06403 9.32548C4.80276 10.0116 4.63683 10.7303 4.57086 11.4616L3.80246 10.6926L3 11.4951L5.10375 13.5988L7.2075 11.4951L6.40505 10.6926Z" fill="#1B105F"/>
<path d="M11.9138 7.12134V12.7964H15.3189V11.6614H13.0488V7.12134H11.9138Z" fill="#1B105F"/>
<path d="M17.5889 11.6614H16.4539V12.7964H17.5889V11.6614Z" fill="#1B105F"/>
<path d="M13.0488 16.2014H11.9138V17.3364H13.0488V16.2014Z" fill="#1B105F"/>
</svg>
