<svg width="72" height="72" viewBox="0 0 72 72" fill="none" xmlns="http://www.w3.org/2000/svg">
<circle cx="36" cy="36" r="36" fill="#27178B" fill-opacity="0.1"/>
<path d="M48.0195 36.9029H44.6914C44.2384 36.9029 43.7999 36.9648 43.3825 37.0786C42.5592 35.4602 40.8783 34.3481 38.9415 34.3481H33.0585C31.1217 34.3481 29.4408 35.4602 28.6175 37.0786C28.2001 36.9648 27.7616 36.9029 27.3086 36.9029H23.9805C21.2342 36.9029 19 39.1372 19 41.8834V47.2037C19 48.8515 20.3405 50.192 21.9883 50.192H50.0117C51.6595 50.192 53 48.8515 53 47.2037V41.8834C53 39.1372 50.7658 36.9029 48.0195 36.9029ZM28.0781 39.3287V48.1999H21.9883C21.439 48.1999 20.9922 47.753 20.9922 47.2038V41.8835C20.9922 40.2357 22.3327 38.8952 23.9805 38.8952H27.3086C27.579 38.8952 27.8409 38.9319 28.0902 38.9996C28.083 39.1085 28.0781 39.2181 28.0781 39.3287ZM41.9297 48.1999H30.0703V39.3287C30.0703 37.6809 31.4108 36.3404 33.0585 36.3404H38.9415C40.5892 36.3404 41.9297 37.6809 41.9297 39.3287V48.1999ZM51.0078 47.2038C51.0078 47.753 50.561 48.1999 50.0117 48.1999H43.9219V39.3287C43.9219 39.218 43.917 39.1084 43.9098 38.9995C44.1591 38.9319 44.421 38.8951 44.6914 38.8951H48.0195C49.6673 38.8951 51.0078 40.2357 51.0078 41.8834V47.2038Z" fill="#27178B"/>
<path d="M25.6445 27.4966C23.2041 27.4966 21.2188 29.4819 21.2188 31.9223C21.2187 34.3627 23.2041 36.348 25.6445 36.348C28.0848 36.348 30.0702 34.3627 30.0702 31.9223C30.0702 29.4819 28.0848 27.4966 25.6445 27.4966ZM25.6444 34.3558C24.3025 34.3558 23.2109 33.2642 23.2109 31.9223C23.2109 30.5804 24.3025 29.4888 25.6444 29.4888C26.9863 29.4888 28.0779 30.5804 28.0779 31.9223C28.0779 33.2642 26.9863 34.3558 25.6444 34.3558Z" fill="#27178B"/>
<path d="M36.0001 22C32.7398 22 30.0874 24.6524 30.0874 27.9127C30.0874 31.173 32.7398 33.8254 36.0001 33.8254C39.2604 33.8254 41.9128 31.173 41.9128 27.9127C41.9128 24.6525 39.2604 22 36.0001 22ZM36.0001 31.8332C33.8383 31.8332 32.0796 30.0745 32.0796 27.9127C32.0796 25.751 33.8383 23.9922 36.0001 23.9922C38.1619 23.9922 39.9206 25.7509 39.9206 27.9127C39.9206 30.0745 38.1619 31.8332 36.0001 31.8332Z" fill="#27178B"/>
<path d="M46.3554 27.4966C43.9151 27.4966 41.9297 29.4819 41.9297 31.9223C41.9298 34.3627 43.9151 36.348 46.3554 36.348C48.7958 36.348 50.7811 34.3627 50.7811 31.9223C50.7811 29.4819 48.7958 27.4966 46.3554 27.4966ZM46.3554 34.3558C45.0136 34.3558 43.9219 33.2642 43.9219 31.9223C43.9219 30.5804 45.0136 29.4888 46.3554 29.4888C47.6973 29.4888 48.7889 30.5804 48.7889 31.9223C48.7889 33.2642 47.6973 34.3558 46.3554 34.3558Z" fill="#27178B"/>
</svg>
