<svg width="72" height="72" viewBox="0 0 72 72" fill="none" xmlns="http://www.w3.org/2000/svg">
<circle cx="36" cy="36" r="36" fill="#27178B" fill-opacity="0.1"/>
<g clip-path="url(#clip0)">
<path fill-rule="evenodd" clip-rule="evenodd" d="M46.9228 32.0999H44.5657V28.957C44.5657 24.1837 40.6961 20.3142 35.9228 20.3142C31.1495 20.3142 27.28 24.1837 27.28 28.957V32.0999H24.9228C23.621 32.0999 22.5657 33.1553 22.5657 34.457V50.1713C22.5657 51.4732 23.621 52.5285 24.9228 52.5285H46.9228C48.2246 52.5285 49.28 51.4732 49.28 50.1713V34.457C49.28 33.1553 48.2246 32.0999 46.9228 32.0999ZM29.6371 28.957C29.6371 25.4856 32.4513 22.6713 35.9228 22.6713C39.3943 22.6713 42.2086 25.4856 42.2086 28.957V32.0999H29.6371V28.957ZM46.9228 50.1713H24.9228V34.457H46.9228V50.1713Z" fill="#27178B"/>
<path fill-rule="evenodd" clip-rule="evenodd" d="M36.3157 46.2428C38.2685 46.2428 39.8515 44.6598 39.8515 42.7071C39.8515 40.7544 38.2685 39.1714 36.3157 39.1714C34.363 39.1714 32.78 40.7544 32.78 42.7071C32.7844 44.658 34.3648 46.2385 36.3157 46.2428ZM36.3157 41.5285C36.9666 41.5285 37.4943 42.0562 37.4943 42.7071C37.4943 43.3581 36.9666 43.8857 36.3157 43.8857C35.6648 43.8857 35.1372 43.3581 35.1372 42.7071C35.1372 42.0562 35.6648 41.5285 36.3157 41.5285Z" fill="#27178B"/>
</g>
<defs>
<clipPath id="clip0">
<rect width="27.5" height="33" fill="white" transform="translate(22 20)"/>
</clipPath>
</defs>
</svg>
