<svg width="72" height="72" viewBox="0 0 72 72" fill="none" xmlns="http://www.w3.org/2000/svg">
<circle cx="36" cy="36" r="36" fill="#27178B" fill-opacity="0.1"/>
<path fill-rule="evenodd" clip-rule="evenodd" d="M25.7679 44.9283L30.7344 46.3484C31.1187 46.4595 31.533 46.37 31.8372 46.1104L36.7086 41.9373L40.7151 44.6109C41.1713 44.9173 41.7779 44.8713 42.1829 44.4999L51.7034 35.7727C52.1031 35.3185 52.0983 34.6367 51.6923 34.1881C51.2863 33.7395 50.6084 33.6669 50.1167 34.0193L41.2864 42.1197L37.3195 39.4619C36.8754 39.1657 36.2884 39.2013 35.8834 39.5492L30.8138 43.889L25.8789 42.4767C25.5083 42.3704 25.1091 42.4503 24.8079 42.691L22.3801 44.6347V42.1356L24.9745 40.1918L29.1397 41.5802C29.593 41.7317 30.0929 41.5974 30.4091 41.2391L36.1849 34.7413L40.9452 36.7803C41.5118 37.022 42.1692 36.7914 42.4606 36.2487L48.8076 24.3481C49.0074 23.9725 48.9917 23.5188 48.7663 23.158C48.541 22.7972 48.1403 22.5839 47.7151 22.5987C47.29 22.6134 46.905 22.8538 46.7051 23.2294L40.8738 34.1701L36.3277 32.2184C35.8577 32.0169 35.3116 32.1383 34.9711 32.5198L29.1477 39.0732L25.1332 37.7323C24.7641 37.6094 24.3582 37.6746 24.0462 37.9069L22.3801 39.1525V22.1901C22.3801 21.5328 21.8473 21 21.1901 21C20.5328 21 20 21.5328 20 22.1901V50.355C20 51.0123 20.5328 51.5451 21.1901 51.5451H49.355C50.0123 51.5451 50.5451 51.0123 50.5451 50.355C50.5451 49.6978 50.0123 49.1649 49.355 49.1649H22.3801V47.6734L25.7679 44.9283Z" fill="#27178B"/>
</svg>
